HIERARCHY
ROOT Hips
{
	OFFSET 0.00000 0.00000 0.00000
	CHANNELS 6 Xposition Yposition Zposition Zrotation Yrotation Xrotation 
	JOINT LHipJoint
	{
		OFFSET 0 0 0
		CHANNELS 3 Zrotation Yrotation Xrotation
		JOINT LeftHip
		{
			OFFSET 1.58895 -1.83665 0.71753
			CHANNELS 3 Zrotation Yrotation Xrotation
			JOINT LeftKnee
			{
				OFFSET 2.50528 -6.88321 0.00000
				CHANNELS 3 Zrotation Yrotation Xrotation
				JOINT LeftAnkle
				{
					OFFSET 2.63244 -7.23257 0.00000
					CHANNELS 3 Zrotation Yrotation Xrotation
					JOINT LeftToe
					{
						OFFSET 0.23691 -0.65090 1.72750
						CHANNELS 3 Zrotation Yrotation Xrotation
						End Site
						{
							OFFSET 0.00000 -0.00000 0.92561
						}
					}
				}
			}
		}
	}
	JOINT RHipJoint
	{
		OFFSET 0 0 0
		CHANNELS 3 Zrotation Yrotation Xrotation
		JOINT RightHip
		{
			OFFSET -1.51435 -1.83665 0.71753
			CHANNELS 3 Zrotation Yrotation Xrotation
			JOINT RightKnee
			{
				OFFSET -2.54551 -6.99375 0.00000
				CHANNELS 3 Zrotation Yrotation Xrotation
				JOINT RightAnkle
				{
					OFFSET -2.66027 -7.30903 0.00000
					CHANNELS 3 Zrotation Yrotation Xrotation
					JOINT RightToe
					{
						OFFSET -0.22981 -0.63138 2.03959
						CHANNELS 3 Zrotation Yrotation Xrotation
						End Site
						{
							OFFSET -0.00000 -0.00000 1.07060
						}
					}
				}
			}
		}
	}
	JOINT lowerback
	{
		OFFSET 0 0 0
		CHANNELS 3 Zrotation Yrotation Xrotation
		JOINT Chest
		{
			OFFSET -0.02651 1.86275 -0.11152
			CHANNELS 3 Zrotation Yrotation Xrotation
			JOINT Chest2
			{
				OFFSET 0.01019 1.86224 0.04087
				CHANNELS 3 Zrotation Yrotation Xrotation
				JOINT lowerneck
				{
					OFFSET 0 0 0
					CHANNELS 3 Zrotation Yrotation Xrotation
					JOINT Neck
					{
						OFFSET -0.01926 1.80512 0.08867
						CHANNELS 3 Zrotation Yrotation Xrotation
						JOINT Head
						{
							OFFSET 0.05516 1.76451 -0.38475
							CHANNELS 3 Zrotation Yrotation Xrotation
							End Site
							{
								OFFSET 0.01592 1.82587 -0.14001
							}
						}
					}
				}
				JOINT LeftCollar
				{
					OFFSET 0 0 0
					CHANNELS 3 Zrotation Yrotation Xrotation
					JOINT LeftShoulder
					{
						OFFSET 3.47116 1.51376 0.14491
CHANNELS 3 Zrotation Xrotation Yrotation
						JOINT LeftElbow
						{
OFFSET 0 -4.780950 0.000000
CHANNELS 3 Zrotation Xrotation Yrotation
							JOINT LeftWrist
							{
OFFSET 0 -3.586150 -0.000000
CHANNELS 3 Zrotation Xrotation Yrotation
								JOINT lhand
								{
									OFFSET 0 0 0
CHANNELS 3 Zrotation Xrotation Yrotation
									JOINT LFingers
									{
OFFSET 0 -0.659810 0.000000
CHANNELS 3 Zrotation Xrotation Yrotation
										End Site
										{
OFFSET 0 -0.531960 0.000000
										}
									}
								}
								JOINT LThumb
								{
OFFSET 0 0.000000 0.000000
CHANNELS 3 Zrotation Xrotation Yrotation
									End Site
									{
OFFSET 0 -0.540080 0.540080
									}
								}
							}
						}
					}
				}
				JOINT RightCollar
				{
					OFFSET 0 0 0
					CHANNELS 3 Zrotation Yrotation Xrotation
					JOINT RightShoulder
					{
						OFFSET -3.31725 1.61216 0.35156
CHANNELS 3 Zrotation Xrotation Yrotation
						JOINT RightElbow
						{
OFFSET 0 -4.489130 0.000000
CHANNELS 3 Zrotation Xrotation Yrotation
							JOINT RightWrist
							{
OFFSET 0 -3.705100 0.000000
CHANNELS 3 Zrotation Xrotation Yrotation
								JOINT rhand
								{
									OFFSET 0 0 0
CHANNELS 3 Zrotation Xrotation Yrotation
									JOINT RFingers
									{
OFFSET 0 -0.449140 0.000000
CHANNELS 3 Zrotation Xrotation Yrotation
										End Site
										{
OFFSET 0 -0.362110 0.000000
										}
									}
								}
								JOINT RThumb
								{
OFFSET 0 0.000000 0.000000
CHANNELS 3 Zrotation Xrotation Yrotation
									End Site
									{
OFFSET 0 -0.367630 0.367630
									}
								}
							}
						}
					}
				}
			}
		}
	}
}
MOTION
Frames: 6
Frame Time: 0.008333333333333333
-0.702954 18.278888 4.910770 -2.877187 13.304232 2.083260 0.000000 0.000000 0.000000 -8.985307 -11.256217 -18.025789 3.946011 12.088146 36.044511 1.132646 -5.894745 -19.021140 8.463995 -16.450054 -54.217091 0.000000 0.000000 0.000000 16.384430 -7.034888 -10.598758 -1.797320 -8.430523 24.029471 -1.922284 0.673807 -26.043717 -0.895147 6.029626 -16.870474 2.006129 1.304813 20.403357 4.358705 2.671225 1.246692 2.885578 1.297649 -10.223504 -9.627060 -8.842657 -14.253516 4.578749 -11.126985 22.988516 1.676542 -5.416230 10.540685 0.000000 0.000000 0.000000 15.149141 -42.801552 -63.947189 124.459861 -54.999408 89.342012 20.816755 -44.862096 31.176870 0.000000 0.000000 0.000000 -7.125000 0.000000 0.000000 -6.047713 -2.773149 -6.368194 0.000000 0.000000 0.000000 -37.692690 -11.555107 5.361383 -155.757048 -35.418930 -112.152564 -10.309818 -7.283513 10.930369 0.000000 0.000000 0.000000 7.125000 0.000000 0.000000 14.760499 40.634727 1.626858
-0.736002 18.291316 4.911040 -2.767926 14.192592 2.142905 0.000000 0.000000 0.000000 -8.986833 -11.703953 -18.038208 3.885884 12.006776 35.756148 1.090792 -5.956891 -18.654944 8.494491 -16.471110 -54.324721 0.000000 0.000000 0.000000 16.431473 -7.211820 -10.610350 -1.800456 -8.437439 24.050762 -1.988845 0.420636 -26.574214 -0.845126 5.862369 -16.385910 1.864978 1.424244 20.497831 4.117812 2.775906 1.215968 2.667884 1.346385 -10.307006 -10.064180 -9.269452 -13.923133 5.582618 -11.903513 22.790623 1.990701 -5.702161 10.568836 0.000000 0.000000 0.000000 14.836870 -42.590073 -64.817062 124.720708 -54.914564 89.555487 20.766135 -44.645094 31.067139 0.000000 0.000000 0.000000 -7.125000 0.000000 0.000000 -6.061608 -2.651277 -6.370665 0.000000 0.000000 0.000000 -38.960479 -12.390404 3.766445 -154.736373 -36.462570 -111.549908 -9.420196 -7.662848 11.056562 0.000000 0.000000 0.000000 7.125000 0.000000 0.000000 15.552384 40.681204 1.703598
-0.772007 18.303309 4.910557 -2.609103 15.069008 2.219924 0.000000 0.000000 0.000000 -9.032405 -12.150663 -18.062854 3.828266 11.928132 35.478347 1.053011 -6.018393 -18.320986 8.513245 -16.484000 -54.390846 0.000000 0.000000 0.000000 16.435292 -7.367822 -10.687346 -1.818106 -8.476273 24.170339 -2.056485 0.200980 -27.096845 -0.796367 5.694930 -15.902046 1.712718 1.578025 20.602303 3.821226 2.915646 1.201730 2.384051 1.410334 -10.375577 -10.504854 -9.745596 -13.486523 6.722609 -12.783591 22.422621 2.340302 -6.028085 10.547284 0.000000 0.000000 0.000000 14.509904 -42.313585 -65.694863 125.206802 -54.753391 89.952566 20.514766 -44.525336 30.971183 0.000000 0.000000 0.000000 -7.125000 0.000000 0.000000 -6.192289 -2.503541 -6.493984 0.000000 0.000000 0.000000 -40.532780 -13.326593 1.980717 -153.376269 -37.799366 -110.725190 -8.462051 -7.982963 11.296846 0.000000 0.000000 0.000000 7.125000 0.000000 0.000000 16.436737 40.828729 1.740113
-0.810201 18.313822 4.909324 -2.385795 15.909676 2.314816 0.000000 0.000000 0.000000 -9.143575 -12.564555 -18.102250 3.775299 11.855218 35.221627 1.021434 -6.076913 -18.038856 8.529902 -16.495427 -54.449572 0.000000 0.000000 0.000000 16.373940 -7.514116 -10.839451 -1.852620 -8.551876 24.403342 -2.121537 0.038781 -27.578953 -0.749039 5.527822 -15.420355 1.528913 1.771424 20.706860 3.472820 3.092245 1.211127 2.049679 1.491497 -10.416712 -10.938321 -10.269946 -12.936579 7.979585 -13.761158 21.882770 2.717382 -6.394490 10.474648 0.000000 0.000000 0.000000 14.168481 -41.950507 -66.547285 125.942798 -54.505363 90.552816 20.035326 -44.514529 30.841007 0.000000 0.000000 0.000000 -7.125000 0.000000 0.000000 -6.449058 -2.276133 -6.742100 0.000000 0.000000 0.000000 -42.456178 -14.354932 0.043244 -151.639643 -39.432212 -109.643078 -7.447655 -8.222475 11.778713 0.000000 0.000000 0.000000 7.125000 0.000000 0.000000 17.436445 41.202659 1.689743
-0.849515 18.319785 4.905716 -2.019522 16.621755 2.446306 0.000000 0.000000 0.000000 -9.418482 -12.865157 -18.170792 3.734071 11.797866 35.020564 1.000673 -6.090460 -17.851486 8.562517 -16.517735 -54.564350 0.000000 0.000000 0.000000 16.142323 -7.644649 -11.121794 -1.916082 -8.688741 24.826525 -2.175576 0.015590 -27.938011 -0.702436 5.356429 -14.928114 1.236630 2.030502 20.803306 3.052139 3.317972 1.274664 1.683259 1.598839 -10.393815 -11.346927 -10.843688 -12.304602 9.389680 -14.839289 21.174961 3.126577 -6.803759 10.374448 0.000000 0.000000 0.000000 13.833719 -41.425209 -67.294924 126.967626 -54.145495 91.385121 19.488162 -44.525351 30.627280 0.000000 0.000000 0.000000 -7.125000 0.000000 0.000000 -6.735303 -1.953371 -7.008614 0.000000 0.000000 0.000000 -45.008015 -15.539227 -2.058758 -149.058283 -41.658415 -107.958444 -6.737784 -8.278796 12.280230 0.000000 0.000000 0.000000 7.125000 0.000000 0.000000 18.191372 41.616418 1.574156
-0.888336 18.321300 4.900022 -1.562842 17.097217 2.593285 0.000000 0.000000 0.000000 -9.802855 -13.010760 -18.258284 3.707068 11.760012 34.888211 0.986502 -6.052102 -17.723106 8.610181 -16.550148 -54.731856 0.000000 0.000000 0.000000 15.788224 -7.671923 -11.497619 -2.007282 -8.879816 25.420964 -2.221156 0.104995 -28.202927 -0.644079 5.131373 -14.284170 0.896728 2.328907 20.871685 2.568186 3.573249 1.423938 1.268450 1.721505 -10.257114 -11.789861 -11.399249 -11.716839 10.999538 -15.906655 20.344450 3.604154 -7.202811 10.286770 0.000000 0.000000 0.000000 13.550366 -40.757546 -67.783042 128.254721 -53.669077 92.424163 18.751508 -44.355581 30.390814 0.000000 0.000000 0.000000 -7.125000 0.000000 0.000000 -7.130025 -1.576014 -7.379101 0.000000 0.000000 0.000000 -48.074277 -16.897743 -4.021526 -145.259734 -44.517133 -105.332671 -7.122238 -8.430192 12.158406 0.000000 0.000000 0.000000 7.125000 0.000000 0.000000 17.825832 41.536019 1.576931
